<svg class="typst-doc" viewBox="0 0 215.43307086614175 232.44094488188975" width="215.43307086614175pt" height="232.44094488188975pt" xmlns="http://www.w3.org/2000/svg" xmlns:xlink="http://www.w3.org/1999/xlink" xmlns:h5="http://www.w3.org/1999/xhtml">
    <path class="typst-shape" fill="#ffffff" fill-rule="nonzero" d="M 0 0v 232.44095 h 215.43307 v -232.44095 Z "/>
    <g>
        <g class="typst-group" transform="matrix(1 0 0 1 11.338582677165354 11.338582677165354)">
            <g>
                <path class="typst-shape" fill="#eaf2fb" fill-rule="nonzero" stroke="#6c8ebf" stroke-width="1" stroke-linecap="butt" stroke-linejoin="miter" stroke-miterlimit="4" d="M 0 0m 5.102362 0 c -2.8154018 0 -5.102362 2.2869604 -5.102362 5.102362 v 80.50394 c 0 2.8153992 2.2869604 5.1023636 5.102362 5.1023636 h 182.5512 c 2.8153992 0 5.102356 -2.2869644 5.102356 -5.1023636 v -80.50394 c 0 -2.8154018 -2.2869568 -5.102362 -5.102356 -5.102362 h -182.5512 Z "/>
                <path class="typst-shape" fill="none" transform="matrix(1 0 0 1 14.136393869955707 4.89074226439469)" d="M 0 0h 17.081543 v 10.061035 h -17.081543 v -10.061035 Z "/>
                <g class="typst-group">
                    <g>
                        <g class="typst-group" transform="matrix(1 0 0 1 14.13639382677165 4.890742157480316)">
                            <g>
                                <g class="typst-text" transform="matrix(1 0 0 -1 0 9.876953125)">
                                    <use xlink:href="#g2768FEF255CBA320D92A162C01D8F776" x="0" y="0" fill="#6c8ebf" fill-rule="nonzero"/>
                                    <use xlink:href="#g71E080AB24FE5993BA74E3988269FBED" x="10.67041015625" y="0" fill="#6c8ebf" fill-rule="nonzero"/>
                                </g>
                            </g>
                        </g>
                    </g>
                </g>
                <path class="typst-shape" fill="#dae8fc" fill-rule="nonzero" stroke="#6c8ebf" stroke-width="1" stroke-linecap="butt" stroke-linejoin="miter" stroke-miterlimit="4" transform="matrix(1 0 0 1 30.047244094488185 35.71653543307087)" d="M 0 0m 9.637795 0 c -5.3179812 0 -9.637795 4.319814 -9.637795 9.637795 c 0 5.317981 4.319814 9.637795 9.637795 9.637795 c 5.317981 0 9.637795 -4.3198147 9.637795 -9.637795 c 0 -5.3179812 -4.3198147 -9.637795 -9.637795 -9.637795 Z "/>
                <path class="typst-shape" fill="none" transform="matrix(1 0 0 1 34.53703937007874 40.91483070866142)" d="M 0 0h 10.296 v 8.879 h -10.296 v -8.879 Z "/>
                <g class="typst-group">
                    <g>
                        <g class="typst-group" transform="matrix(1 0 0 1 34.53703922834646 40.91483069291339)">
                            <g>
                                <g class="typst-text" transform="matrix(1 0 0 -1 0 8.879)">
                                    <use xlink:href="#gDA0A0B30C303D40EE84FDD910B0B63B0" x="0" y="0" fill="#000000" fill-rule="nonzero"/>
                                </g>
                            </g>
                        </g>
                    </g>
                </g>
                <path class="typst-shape" fill="#dae8fc" fill-rule="nonzero" stroke="#6c8ebf" stroke-width="1" stroke-linecap="butt" stroke-linejoin="miter" stroke-miterlimit="4" transform="matrix(1 0 0 1 143.43307086614172 35.71653543307087)" d="M 0 0m 9.637795 0 c -5.3179812 0 -9.637795 4.319814 -9.637795 9.637795 c 0 5.317981 4.319814 9.637795 9.637795 9.637795 c 5.317981 0 9.637795 -4.3198147 9.637795 -9.637795 c 0 -5.3179812 -4.3198147 -9.637795 -9.637795 -9.637795 Z "/>
                <path class="typst-shape" fill="none" transform="matrix(1 0 0 1 147.89036614173227 40.77183070866142)" d="M 0 0h 10.361 v 9.165 h -10.361 v -9.165 Z "/>
                <g class="typst-group">
                    <g>
                        <g class="typst-group" transform="matrix(1 0 0 1 147.89036607874016 40.771830614173226)">
                            <g>
                                <g class="typst-text" transform="matrix(1 0 0 -1 0 8.879)">
                                    <use xlink:href="#g7DA252DD54AA884C07CAB2C5A04EDE06" x="0" y="0" fill="#000000" fill-rule="nonzero"/>
                                </g>
                            </g>
                        </g>
                    </g>
                </g>
                <path class="typst-shape" fill="none" stroke="#000000" stroke-width="1" stroke-linecap="butt" stroke-linejoin="miter" stroke-miterlimit="4" transform="matrix(1 0 0 1 49.32283464566929 29.762839525011703)" d="M 0 0m 0 12.756845 c 22.347296 -15.591136 62.321896 -16.889862 87.59619 -3.901967 "/>
                <path class="typst-shape" fill="none" stroke="#000000" stroke-width="1" stroke-linecap="butt" stroke-linejoin="miter" stroke-miterlimit="4" transform="matrix(1 0 0 1 136.25548327559056 37.05083929133858)" d="M 0 0m 5.955983 4.737094 l -3.7710228 -4.737094 l -2.1849604 3.647627 l 5.955983 1.0894668 Z "/>
                <path class="typst-shape" fill="none" transform="matrix(1 0 0 1 93.3294527559055 11.079551181102364)" d="M 0 0h 6.097 v 9.022 h -6.097 v -9.022 Z "/>
                <g class="typst-group">
                    <g>
                        <g class="typst-group" transform="matrix(1 0 0 1 93.32945262992126 11.079551055118111)">
                            <g>
                                <g class="typst-text" transform="matrix(1 0 0 -1 0 8.879)">
                                    <use xlink:href="#g897364F7D187247834F60ECD0453F63B" x="0" y="0" fill="#996600" fill-rule="nonzero"/>
                                </g>
                            </g>
                        </g>
                    </g>
                </g>
                <path class="typst-shape" fill="none" stroke="#000000" stroke-width="1" stroke-linecap="butt" stroke-linejoin="miter" stroke-miterlimit="4" transform="matrix(1 0 0 1 49.32283464566929 48.188976377952756)" d="M 0 0c 22.347296 15.591136 62.321896 16.889862 87.59619 3.9019673 "/>
                <path class="typst-shape" fill="none" stroke="#000000" stroke-width="1" stroke-linecap="butt" stroke-linejoin="miter" stroke-miterlimit="4" transform="matrix(1 0 0 1 136.25548327559056 48.92072796850394)" d="M 0 0m 5.955983 0 l -5.955983 1.0894669 l 2.1849604 3.6476269 l 3.7710228 -4.737094 Z "/>
                <path class="typst-shape" fill="none" transform="matrix(1 0 0 1 94.03145275590552 70.60711023622048)" d="M 0 0h 4.693 v 9.022 h -4.693 v -9.022 Z "/>
                <g class="typst-group">
                    <g>
                        <g class="typst-group" transform="matrix(1 0 0 1 94.03145262992126 70.60711011023623)">
                            <g>
                                <g class="typst-text" transform="matrix(1 0 0 -1 0 8.879)">
                                    <use xlink:href="#g435C1D9DBE96DFF891C824C8AC279D2B" x="0" y="0" fill="#996600" fill-rule="nonzero"/>
                                </g>
                            </g>
                        </g>
                    </g>
                </g>
                <path class="typst-shape" fill="#fdf1e3" fill-rule="nonzero" stroke="#d79b00" stroke-width="1" stroke-linecap="butt" stroke-linejoin="miter" stroke-miterlimit="4" transform="matrix(1 0 0 1 0 124.72440944881892)" d="M 0 0m 5.102362 0 c -2.8154018 0 -5.102362 2.2869604 -5.102362 5.102362 v 74.83464 c 0 2.8154068 2.2869604 5.1023636 5.102362 5.1023636 h 182.5512 c 2.8153992 0 5.102356 -2.2869568 5.102356 -5.1023636 v -74.83464 c 0 -2.8154018 -2.2869568 -5.102362 -5.102356 -5.102362 h -182.5512 Z "/>
                <path class="typst-shape" fill="none" transform="matrix(1 0 0 1 12.874044583538383 129.61515171321358)" d="M 0 0h 30.944824 v 10.061035 h -30.944824 v -10.061035 Z "/>
                <g class="typst-group">
                    <g>
                        <g class="typst-group" transform="matrix(1 0 0 1 12.874044472440941 129.6151516062992)">
                            <g>
                                <g class="typst-text" transform="matrix(1 0 0 -1 0 9.876953125)">
                                    <use xlink:href="#gD48432D7DFB6B9418564EFC96AD237E7" x="0" y="0" fill="#d79b00" fill-rule="nonzero"/>
                                    <use xlink:href="#gD48432D7DFB6B9418564EFC96AD237E7" x="10.791015625" y="0" fill="#d79b00" fill-rule="nonzero"/>
                                    <use xlink:href="#g55DE71B745AB5A43883A5CAE784499C4" x="21.58203125" y="0" fill="#d79b00" fill-rule="nonzero"/>
                                </g>
                            </g>
                        </g>
                    </g>
                </g>
                <path class="typst-shape" fill="#ffe6cc" fill-rule="nonzero" stroke="#d79b00" stroke-width="1" stroke-linecap="butt" stroke-linejoin="miter" stroke-miterlimit="4" transform="matrix(1 0 0 1 85.03937007874016 155.90551181102362)" d="M 0 0m 11.338583 0 c -6.2564487 0 -11.338583 5.0821342 -11.338583 11.338583 c 0 6.2564487 5.0821342 11.338583 11.338583 11.338583 c 6.2564487 0 11.338583 -5.0821342 11.338583 -11.338583 c 0 -6.2564487 -5.0821342 -11.338583 -11.338583 -11.338583 Z "/>
                <path class="typst-shape" fill="none" transform="matrix(1 0 0 1 92.00345275590551 162.66159448818897)" d="M 0 0h 8.749 v 9.165 h -8.749 v -9.165 Z "/>
                <g class="typst-group">
                    <g>
                        <g class="typst-group" transform="matrix(1 0 0 1 92.00345272440946 162.66159439370074)">
                            <g>
                                <g class="typst-text" transform="matrix(1 0 0 -1 0 8.879)">
                                    <use xlink:href="#g584E2874E58294E2E9A80ABA0383E37" x="0" y="0" fill="#000000" fill-rule="nonzero"/>
                                </g>
                            </g>
                        </g>
                    </g>
                </g>
                <path class="typst-shape" fill="none" stroke="#000000" stroke-width="1" stroke-linecap="butt" stroke-linejoin="miter" stroke-miterlimit="4" transform="matrix(1 0 0 1 71.63338781668067 158.4999094580123)" d="M 0 0m 15.10677 2.5079646 c -17.386726 -10.529989 -19.753155 15.538771 -7.162521 14.993626 "/>
                <path class="typst-shape" fill="none" stroke="#000000" stroke-width="1" stroke-linecap="butt" stroke-linejoin="miter" stroke-miterlimit="4" transform="matrix(1 0 0 1 79.34338500236221 173.83010939291339)" d="M 0 0m 6.053556 0.12301341 l -6.053556 -0.12301341 l 1.4117721 4.0107527 l 4.6417837 -3.8877392 Z "/>
                <path class="typst-shape" fill="none" transform="matrix(1 0 0 1 52.68923622047244 162.73309448818898)" d="M 0 0h 10.842 v 9.022 h -10.842 v -9.022 Z "/>
                <g class="typst-group">
                    <g>
                        <g class="typst-group" transform="matrix(1 0 0 1 52.68923617322834 162.7330943622047)">
                            <g>
                                <g class="typst-text" transform="matrix(1 0 0 -1 0 8.879)">
                                    <use xlink:href="#g36E2D504FAE46A678FC7EACB31DA2309" x="0" y="0" fill="#b00000" fill-rule="nonzero"/>
                                    <use xlink:href="#gF42DC712C59DD38B59D5F0FBCB07D9A1" x="3.6140000000000003" y="0" fill="#b00000" fill-rule="nonzero"/>
                                </g>
                            </g>
                        </g>
                    </g>
                </g>
                <path class="typst-shape" fill="none" stroke="#000000" stroke-width="1" stroke-linecap="butt" stroke-linejoin="miter" stroke-miterlimit="4" transform="matrix(1 0 0 1 106.01574803149606 158.4782452483738)" d="M 0 0m 0 15.002069 c 17.386726 10.529989 19.753157 -15.538771 7.1625214 -14.993626 "/>
                <path class="typst-shape" fill="none" stroke="#000000" stroke-width="1" stroke-linecap="butt" stroke-linejoin="miter" stroke-miterlimit="4" transform="matrix(1 0 0 1 107.35896444094489 156.64732708110236)" d="M 0 0m 0 3.8877392 l 6.053556 0.1230135 l -1.4117723 -4.0107527 l -4.6417837 3.8877392 Z "/>
                <path class="typst-shape" fill="none" transform="matrix(1 0 0 1 125.01981496062992 162.73309448818898)" d="M 0 0h 24.921 v 9.022 h -24.921 v -9.022 Z "/>
                <g class="typst-group">
                    <g>
                        <g class="typst-group" transform="matrix(1 0 0 1 125.01981496062992 162.7330943622047)">
                            <g>
                                <g class="typst-text" transform="matrix(1 0 0 -1 0 8.879)">
                                    <use xlink:href="#g5B179227473B81470F9BB620345550D" x="0" y="0" fill="#b00000" fill-rule="nonzero"/>
                                    <use xlink:href="#g15DD9E5BD4234D005A755E176074F18E" x="7.228000000000001" y="0" fill="#b00000" fill-rule="nonzero"/>
                                    <use xlink:href="#g15393BD0C0335AB79E97A31DB8422327" x="13" y="0" fill="#b00000" fill-rule="nonzero"/>
                                    <use xlink:href="#g68877EDE43E93E02097B8DBBC6E90A19" x="19.864" y="0" fill="#b00000" fill-rule="nonzero"/>
                                </g>
                            </g>
                        </g>
                    </g>
                </g>
                <path class="typst-shape" fill="none" stroke="#aaaaaa" stroke-width="0.8" stroke-linecap="butt" stroke-linejoin="miter" stroke-miterlimit="4" stroke-dashoffset="0" stroke-dasharray="3 3" transform="matrix(1 0 0 1 38.26771653543307 54.99212598425197)" d="M 0 0l 25.108772 96.206245 "/>
                <path class="typst-shape" fill="none" stroke="#aaaaaa" stroke-width="0.8" stroke-linecap="butt" stroke-linejoin="miter" stroke-miterlimit="4" transform="matrix(1 0 0 1 61.42042204724408 151.0485310984252)" d="M 0 0m 3.488746 6.022419 l 0.6254122 -6.022419 l -4.114158 1.07375 l 3.488746 4.948669 Z "/>
                <path class="typst-shape" fill="none" transform="matrix(1 0 0 1 32.965393700787395 100.04956692913386)" d="M 0 0h 7.77 v 6.83 h -7.77 v -6.83 Z "/>
                <g class="typst-group">
                    <g>
                        <g class="typst-group" transform="matrix(1 0 0 1 32.96539360629921 100.04956681889766)">
                            <g>
                                <g class="typst-text" transform="matrix(1 0 0 -1 0 6.830000000000001)">
                                    <use xlink:href="#g8558A88DD3E43CE81CBE004BC6EA4DBD" x="0" y="0" fill="#888888" fill-rule="nonzero"/>
                                </g>
                            </g>
                        </g>
                    </g>
                </g>
                <path class="typst-shape" fill="none" stroke="#aaaaaa" stroke-width="0.8" stroke-linecap="butt" stroke-linejoin="miter" stroke-miterlimit="4" stroke-dashoffset="0" stroke-dasharray="3 3" transform="matrix(1 0 0 1 129.37941632571824 54.99212598425197)" d="M 0 0m 25.108772 0 l -25.108772 96.206245 "/>
                <path class="typst-shape" fill="none" stroke="#aaaaaa" stroke-width="0.8" stroke-linecap="butt" stroke-linejoin="miter" stroke-miterlimit="4" transform="matrix(1 0 0 1 127.22132534173228 151.0485310984252)" d="M 0 0m 0.6254123 6.022419 l 3.488746 -4.948669 l -4.114158 -1.07375 l 0.6254123 6.022419 Z "/>
                <path class="typst-shape" fill="none" transform="matrix(1 0 0 1 152.02051181102362 100.04956692913386)" d="M 0 0h 7.77 v 6.83 h -7.77 v -6.83 Z "/>
                <g class="typst-group">
                    <g>
                        <g class="typst-group" transform="matrix(1 0 0 1 152.02051171653542 100.04956681889766)">
                            <g>
                                <g class="typst-text" transform="matrix(1 0 0 -1 0 6.830000000000001)">
                                    <use xlink:href="#g8558A88DD3E43CE81CBE004BC6EA4DBD" x="0" y="0" fill="#888888" fill-rule="nonzero"/>
                                </g>
                            </g>
                        </g>
                    </g>
                </g>
                <path class="typst-shape" fill="none" stroke="#aaaaaa" stroke-width="0.8" stroke-linecap="butt" stroke-linejoin="miter" stroke-miterlimit="4" stroke-dashoffset="0" stroke-dasharray="3 3" transform="matrix(1 0 0 1 70.45739086466845 21.25984251968504)" d="M 0 0m 17.416624 0 l -17.416624 123.25611 "/>
                <path class="typst-shape" fill="none" stroke="#aaaaaa" stroke-width="0.8" stroke-linecap="butt" stroke-linejoin="miter" stroke-miterlimit="4" transform="matrix(1 0 0 1 68.2963529952756 144.61456672913386)" d="M 0 0m 1.3118566 5.9109817 l 2.8982878 -5.31607 l -4.2101445 -0.5949117 l 1.3118566 5.9109817 Z "/>
                <path class="typst-shape" fill="none" transform="matrix(1 0 0 1 65.56381889763779 41.939330708661416)" d="M 0 0h 7.77 v 6.83 h -7.77 v -6.83 Z "/>
                <g class="typst-group">
                    <g>
                        <g class="typst-group" transform="matrix(1 0 0 1 65.5638188031496 41.939330598425194)">
                            <g>
                                <g class="typst-text" transform="matrix(1 0 0 -1 0 6.830000000000001)">
                                    <use xlink:href="#g8558A88DD3E43CE81CBE004BC6EA4DBD" x="0" y="0" fill="#888888" fill-rule="nonzero"/>
                                </g>
                            </g>
                        </g>
                    </g>
                </g>
                <path class="typst-shape" fill="none" stroke="#aaaaaa" stroke-width="0.8" stroke-linecap="butt" stroke-linejoin="miter" stroke-miterlimit="4" stroke-dashoffset="0" stroke-dasharray="3 3" transform="matrix(1 0 0 1 104.88188976377951 69.44881889763779)" d="M 0 0l 16.848618 75.17075 "/>
                <path class="typst-shape" fill="none" stroke="#aaaaaa" stroke-width="0.8" stroke-linecap="butt" stroke-linejoin="miter" stroke-miterlimit="4" transform="matrix(1 0 0 1 119.74347806456693 144.54491086771654)" d="M 0 0m 3.3144522 5.9970126 l 0.8345742 -5.9970126 l -4.1490264 0.92995423 l 3.3144522 5.0670586 Z "/>
                <path class="typst-shape" fill="none" transform="matrix(1 0 0 1 119.42208661417322 78.78972440944882)" d="M 0 0h 7.77 v 6.83 h -7.77 v -6.83 Z "/>
                <g class="typst-group">
                    <g>
                        <g class="typst-group" transform="matrix(1 0 0 1 119.42208651968502 78.78972429921262)">
                            <g>
                                <g class="typst-text" transform="matrix(1 0 0 -1 0 6.830000000000001)">
                                    <use xlink:href="#g8558A88DD3E43CE81CBE004BC6EA4DBD" x="0" y="0" fill="#888888" fill-rule="nonzero"/>
                                </g>
                            </g>
                        </g>
                    </g>
                </g>
            </g>
        </g>
    </g>
    <defs id="glyph">
        <symbol id="g2768FEF255CBA320D92A162C01D8F776" overflow="visible">
            <path d="M 0 0m 9.711914 0.70458984 q -0.9140625 -0.44433594 -1.8979492 -0.6665039 q -0.9838867 -0.22216797 -2.03125 -0.22216797 q -2.3676758 0 -3.7514648 1.3234863 q -1.3837891 1.3234863 -1.3837891 3.5895996 q 0 2.291504 1.4091797 3.6054688 q 1.4091797 1.3139648 3.859375 1.3139648 q 0.9458008 0 1.8122559 -0.17773438 q 0.8664551 -0.17773438 1.6345215 -0.52685547 v -1.9614258 q -0.79345703 0.4506836 -1.5773926 0.67285156 q -0.78393555 0.22216797 -1.5710449 0.22216797 q -1.4599609 0 -2.2502441 -0.8156738 q -0.7902832 -0.8156738 -0.7902832 -2.3327637 q 0 -1.5043945 0.76171875 -2.3232422 q 0.76171875 -0.81884766 2.1645508 -0.81884766 q 0.38085938 0 0.7077637 0.047607422 q 0.3269043 0.047607422 0.5871582 0.14916992 v 1.8408203 h -1.4916992 v 1.6376953 h 3.8085938 v -4.557617 Z "/>
        </symbol>
        <symbol id="g71E080AB24FE5993BA74E3988269FBED" overflow="visible">
            <path d="M 0 0m 6.373047 5.17334 q -0.29833984 0.13964844 -0.59350586 0.20629883 q -0.29516602 0.06665039 -0.59350586 0.06665039 q -0.87597656 0 -1.348877 -0.5617676 q -0.4729004 -0.5617676 -0.4729004 -1.6091309 v -3.2753906 h -2.272461 v 7.109375 h 2.272461 v -1.1679688 q 0.43798828 0.6982422 1.0061035 1.0187988 q 0.56811523 0.32055664 1.3615723 0.32055664 q 0.11425781 0 0.2475586 -0.009521484 q 0.13330078 -0.009521484 0.38720703 -0.041259766 l 0.0063476563 -2.0566406 Z "/>
        </symbol>
        <symbol id="gDA0A0B30C303D40EE84FDD910B0B63B0" overflow="visible">
            <path d="M 0 0m 2.5870001 8.528 c 0 -0.13000011 0.14299989 -0.1949997 0.4159999 -0.1949997 c 0.52 0 0.78 -0.052000046 0.78 -0.16899967 c 0 -0.03900051 -0.026000023 -0.13000011 -0.06499982 -0.29900026 l -1.69 -6.7990003 c -0.06500006 -0.28599995 -0.19500005 -0.45499998 -0.3900001 -0.52 c -0.09099996 -0.026000023 -0.32499993 -0.038999975 -0.728 -0.038999975 c -0.286 0 -0.416 -0.026000023 -0.416 -0.29900002 c 0 -0.143 0.143 -0.208 0.416 -0.208 h 6.669 c 0.31200027 0 0.3380003 0.026 0.4419999 0.24700001 l 0.52000046 1.1700001 c 0.35099983 0.806 0.5979996 1.404 0.7410002 1.8069999 c -0.026000023 0.1170001 -0.065000534 0.19500017 -0.20800018 0.19500017 c -0.09100056 0 -0.16900063 -0.06500006 -0.22099972 -0.18200016 c -0.32500076 -0.76699996 -0.6370001 -1.352 -0.94900036 -1.768 c -0.52 -0.70199996 -1.2870002 -0.96199995 -2.5090003 -0.96199995 h -1.885 c -0.12999988 0 -0.22099996 0 -0.273 0.012999952 c -0.07799983 0 -0.116999865 0.026000023 -0.116999865 0.06500006 c 0 0.025999963 0.026000023 0.116999984 0.06500006 0.28599995 l 0.85800004 3.471 h 1.2349997 c 0.61100006 0 0.93600035 -0.07800007 1.0010004 -0.24699974 c 0.026000023 -0.06500006 0.039000034 -0.15600014 0.039000034 -0.28600025 c 0 -0.16899991 -0.026000023 -0.37699986 -0.09100008 -0.62399983 c -0.026000023 -0.06500006 -0.039000034 -0.1170001 -0.039000034 -0.15600014 c 0 -0.12999988 0.07800007 -0.19499993 0.22099972 -0.19499993 c 0.1170001 0 0.19500017 0.10399985 0.24700022 0.29900002 l 0.72800016 3.016 c 0 0.13000011 -0.06500006 0.19500017 -0.20800018 0.19500017 c -0.10400009 0 -0.18200016 -0.09100008 -0.2210002 -0.27300024 c -0.12999964 -0.50699997 -0.2989998 -0.8319998 -0.52 -0.9879999 c -0.22099972 -0.15600014 -0.58500004 -0.2340002 -1.118 -0.2340002 h -1.144 l 0.7540002 3.0290003 c 0.10400009 0.44199944 0.10400009 0.45499992 0.6500001 0.45499992 h 1.8070002 c 0.66299963 0 1.1179996 -0.06499958 1.3650002 -0.1949997 c 0.36399937 -0.19500017 0.5459995 -0.5850005 0.5459995 -1.1700006 c 0 -0.22099972 -0.012999535 -0.45499992 -0.052000046 -0.67599964 c 0 -0.026000023 0 -0.06500006 -0.012999535 -0.1170001 v -0.1170001 c 0 -0.14300013 0.06499958 -0.20800018 0.1949997 -0.20800018 c 0.13000011 0 0.20800018 0.1170001 0.2340002 0.36400032 l 0.26000023 2.223 c 0.038999557 0.36400032 -0.052000046 0.40299988 -0.40300083 0.40299988 h -6.4869995 c -0.29900002 0 -0.4419999 -0.012999535 -0.4419999 -0.31200027 Z "/>
        </symbol>
        <symbol id="g7DA252DD54AA884C07CAB2C5A04EDE06" overflow="visible">
            <path d="M 0 0m 8.723001 8.84 c -0.2470007 0 -1.0270004 0.038999557 -1.2740002 0.038999557 c -0.19500017 0 -0.29900026 -0.10399914 -0.29900026 -0.2989998 c 0 -0.13000011 0.09100008 -0.1949997 0.26000023 -0.20800018 c 0.36399984 -0.012999535 0.546 -0.14299965 0.546 -0.36399937 c 0 -0.1170001 -0.06500006 -0.27300024 -0.18200016 -0.4680004 l -3.874 -6.149 l -0.85800004 6.656 c 0 0.22100067 0.273 0.3249998 0.832 0.3249998 c 0.26000023 0 0.37699986 0.09100056 0.37699986 0.31200027 c 0 0.13000011 -0.07800007 0.1949997 -0.23399973 0.1949997 c -0.286 0 -1.3000002 -0.038999557 -1.5860002 -0.038999557 c -0.26 0 -1.1439999 0.038999557 -1.4039999 0.038999557 c -0.19500005 0 -0.29900002 -0.10399914 -0.29900002 -0.2989998 c 0 -0.14299965 0.13 -0.20800018 0.37699997 -0.20800018 c 0.22099996 0 0.37699997 -0.026000023 0.48100007 -0.052000046 c 0.20799994 -0.06499958 0.19499993 -0.0909996 0.23399997 -0.33799934 l 1.014 -7.9300003 c 0.039000034 -0.221 0.14299989 -0.338 0.31200004 -0.338 c 0.16899991 0 0.29900002 0.091000006 0.40299988 0.26000002 l 4.6280003 7.3580003 c 0.2989998 0.46799994 0.58500004 0.7669997 0.8710003 0.8840003 c 0.1949997 0.0909996 0.44199944 0.14299965 0.7279997 0.15599918 c 0.1430006 0.013000488 0.20800018 0.10400009 0.22099972 0.29900074 c 0.013000488 0.14299965 -0.06499958 0.20799923 -0.22099972 0.20799923 c -0.1949997 0 -0.8579998 -0.038999557 -1.0529995 -0.038999557 Z "/>
        </symbol>
        <symbol id="g897364F7D187247834F60ECD0453F63B" overflow="visible">
            <path d="M 0 0m 5.46 4.602 c 0 0.7409997 -0.7539997 1.144 -1.56 1.144 c -0.819 0 -1.404 -0.24700022 -1.7550001 -0.7410002 c -0.2989999 -0.4289999 -0.45499992 -0.81900024 -0.45499992 -1.1700001 c 0 -0.6889999 0.45499992 -1.131 1.352 -1.326 c 0.3770001 -0.06500006 0.6630001 -0.1559999 0.88400006 -0.26 c 0.27299976 -0.1170001 0.40299988 -0.33800006 0.40299988 -0.6500001 c 0 -0.23399997 -0.10400009 -0.49399996 -0.3249998 -0.793 c -0.273 -0.37699997 -0.7540002 -0.572 -1.4430001 -0.572 c -0.702 0 -1.1570001 0.19500002 -1.3650001 0.572 c 0.416 -0.012999952 0.7670001 0.32500005 0.7670001 0.74100006 c 0 0.32499993 -0.16900003 0.49400008 -0.52 0.49400008 c -0.46800005 0 -0.7670001 -0.42900014 -0.7670001 -0.8970001 c 0 -0.85800004 0.936 -1.2870001 1.8720001 -1.2870001 c 0.9749999 0 1.6769998 0.286 2.0930002 0.87100005 c 0.35099983 0.48099995 0.52 0.90999997 0.52 1.3000001 c 0 0.559 -0.27300024 0.9749999 -0.80600023 1.2479999 c -0.40299988 0.14300013 -0.7149999 0.23399997 -0.90999985 0.273 c -0.45500016 0.1170001 -0.9230001 0.15600014 -0.9230001 0.7149999 c 0 0.6890001 0.6500001 1.105 1.378 1.105 c 0.546 0 0.89699984 -0.16899967 1.066 -0.49399996 c -0.28599977 -0.052000046 -0.58500004 -0.2989998 -0.58500004 -0.6240001 c 0 -0.27299976 0.14300013 -0.4159999 0.4419999 -0.4159999 c 0.40300035 0 0.6370001 0.36399984 0.6370001 0.7670002 Z "/>
        </symbol>
        <symbol id="g435C1D9DBE96DFF891C824C8AC279D2B" overflow="visible">
            <path d="M 0 0m 4.29 5.447 c 0 0.1170001 -0.13000011 0.18200016 -0.40299988 0.18200016 h -1.053 c 0.33800006 1.3519998 0.50699997 2.054 0.50699997 2.106 c 0 0.27300024 -0.14300013 0.40300035 -0.41600013 0.40300035 c -0.2989998 0 -0.48099995 -0.16900015 -0.559 -0.50700045 l -0.48099995 -2.0019999 h -1.157 c -0.28600004 0 -0.42900005 -0.013000011 -0.42900005 -0.28600025 c 0 -0.14299965 0.13000003 -0.2079997 0.40300003 -0.2079997 h 1.053 c -0.63699996 -2.535 -0.949 -3.874 -0.949 -4.043 c 0 -0.728 0.49400008 -1.235 1.2220001 -1.235 c 0.49399996 0 0.92299986 0.22100002 1.3 0.676 c 0.31200004 0.37700003 0.533 0.74100006 0.6760001 1.092 c 0.052000046 0.143 0.07800007 0.22100008 0.07800007 0.26 c 0 0.1170001 -0.06500006 0.18200016 -0.19500017 0.18200016 c -0.10400009 0 -0.18199992 -0.06500006 -0.23399997 -0.20800006 c -0.44200015 -1.079 -0.97500014 -1.6120001 -1.612 -1.6120001 c -0.22100008 0 -0.33800006 0.18200001 -0.33800006 0.533 c 0 0.195 0.026000023 0.40299994 0.07799995 0.611 l 0.923 3.7440002 h 1.1570001 c 0.33799982 0 0.4289999 0.026000023 0.4289999 0.3119998 Z "/>
        </symbol>
        <symbol id="gD48432D7DFB6B9418564EFC96AD237E7" overflow="visible">
            <path d="M 0 0m 3.637207 7.629883 v -5.782715 h 0.87597656 q 1.4980469 0 2.28833 0.7426758 q 0.7902832 0.7426758 0.7902832 2.1582031 q 0 1.4091797 -0.7871094 2.1455078 q -0.7871094 0.7363281 -2.291504 0.7363281 h -0.87597656 Z m -2.4438477 1.847168 h 2.5771484 q 2.1582031 0 3.215088 -0.30786133 q 1.0568848 -0.30786133 1.8122559 -1.0441895 q 0.6665039 -0.6411133 0.9902344 -1.4790039 q 0.32373047 -0.8378906 0.32373047 -1.8979492 q 0 -1.0727539 -0.32373047 -1.9138184 q -0.32373047 -0.84106445 -0.9902344 -1.4821777 q -0.76171875 -0.7363281 -1.828125 -1.0441895 q -1.0664063 -0.30786133 -3.1992188 -0.30786133 h -2.5771484 v 9.477051 Z "/>
        </symbol>
        <symbol id="g55DE71B745AB5A43883A5CAE784499C4" overflow="visible">
            <path d="M 0 0m 7.788574 9.178711 v -2.0058594 q -0.7807617 0.3491211 -1.5234375 0.52685547 q -0.7426758 0.17773438 -1.402832 0.17773438 q -0.87597656 0 -1.2949219 -0.24121094 q -0.4189453 -0.24121094 -0.4189453 -0.74902344 q 0 -0.38085938 0.2824707 -0.59350586 q 0.2824707 -0.21264648 1.0251465 -0.36499023 l 1.0410156 -0.20947266 q 1.5805664 -0.3173828 2.2470703 -0.96484375 q 0.6665039 -0.64746094 0.6665039 -1.8408203 q 0 -1.5678711 -0.92993164 -2.3327637 q -0.92993164 -0.7648926 -2.8405762 -0.7648926 q -0.9013672 0 -1.809082 0.17138672 q -0.90771484 0.17138672 -1.8154297 0.5078125 v 2.0629883 q 0.90771484 -0.48242188 1.755127 -0.72680664 q 0.8474121 -0.24438477 1.6345215 -0.24438477 q 0.7998047 0 1.2250977 0.26660156 q 0.42529297 0.26660156 0.42529297 0.76171875 q 0 0.44433594 -0.28881836 0.6855469 q -0.28881836 0.24121094 -1.1520996 0.43164063 l -0.9458008 0.20947266 q -1.421875 0.3046875 -2.0788574 0.9711914 q -0.6569824 0.6665039 -0.6569824 1.7963867 q 0 1.4155273 0.9140625 2.177246 q 0.9140625 0.76171875 2.6279297 0.76171875 q 0.7807617 0 1.605957 -0.11743164 q 0.8251953 -0.11743164 1.7075195 -0.35229492 Z "/>
        </symbol>
        <symbol id="g584E2874E58294E2E9A80ABA0383E37" overflow="visible">
            <path d="M 0 0m 1.7290001 2.0410001 c 0 0.31200004 0.038999915 0.572 0.10399997 0.78 c 0 0.12999988 -0.06500006 0.19499993 -0.20800006 0.19499993 c -0.06499994 0 -0.116999984 -0.026000023 -0.143 -0.052000046 c -0.06499994 -0.06499982 -0.806 -2.86 -0.806 -3.068 c 0 -0.117 0.065 -0.18200001 0.195 -0.18200001 c 0.065 0 0.15600008 0.06500001 0.27300006 0.208 l 0.58500004 0.689 c 0.45499992 -0.598 1.1830001 -0.897 2.171 -0.897 c 0.8579998 0 1.612 0.351 2.288 1.04 c 0.6760001 0.68900007 1.0139999 1.4560001 1.0139999 2.3140001 c 0 0.61100006 -0.20800018 1.1309998 -0.6370001 1.5470002 c -0.1949997 0.16899967 -0.45499992 0.3119998 -0.77999973 0.4289999 c -0.29900026 0.06500006 -0.58500004 0.14300013 -0.8710003 0.2210002 l -0.8579998 0.23399973 c -0.42900014 0.1170001 -0.7540002 0.59800005 -0.7540002 1.118 c 0 0.559 0.22099996 1.04 0.6760001 1.4559999 c 0.45499992 0.41600037 0.9619999 0.62400055 1.5209999 0.62400055 c 1.1960001 0 1.7940001 -0.6500006 1.7940001 -1.9370003 c 0 -0.2340002 -0.052000046 -0.49399996 -0.052000046 -0.71500015 v -0.039000034 c 0.039000034 -0.09100008 0.10400009 -0.14300013 0.20800018 -0.14300013 c 0.116999626 0 0.1949997 0.10400009 0.24699974 0.29900026 l 0.6890001 2.8209996 c 0 0.11700058 -0.065000534 0.18200016 -0.1949997 0.18200016 c -0.065000534 0 -0.15600014 -0.06499958 -0.27300024 -0.20800018 l -0.559 -0.67599964 c -0.36400032 0.58500004 -0.9750004 0.8839998 -1.8460002 0.8839998 c -0.81899977 0 -1.56 -0.31199932 -2.21 -0.9229994 c -0.6759999 -0.62400055 -1.0139999 -1.3390002 -1.0139999 -2.1580005 c 0 -0.9359999 0.61100006 -1.677 1.378 -1.8850002 l 1.365 -0.35099983 c 0.70200014 -0.19499993 1.144 -0.4419999 1.144 -1.313 c 0 -0.59800005 -0.2340002 -1.131 -0.6890001 -1.5990001 c -0.45499992 -0.468 -0.9749999 -0.715 -1.56 -0.715 c -1.2740002 0 -2.197 0.559 -2.197 1.8200002 Z "/>
        </symbol>
        <symbol id="g36E2D504FAE46A678FC7EACB31DA2309" overflow="visible">
            <path d="M 0 0m 2.522 7.813 c 0 0.38999987 -0.32500005 0.72800016 -0.71500003 0.72800016 c -0.39 0 -0.72800004 -0.3380003 -0.72800004 -0.72800016 c 0 -0.38999987 0.32500005 -0.7410002 0.71500003 -0.7410002 c 0.403 0 0.72800004 0.3380003 0.72800004 0.7410002 Z m -0.663 -7.774 l 1.3519999 -0.039 v 0.507 c -0.4289999 0 -0.6889999 0.025999963 -0.76699996 0.07800001 c -0.07800007 0.051999986 -0.10399985 0.195 -0.10399985 0.42900002 v 4.7710004 l -1.8590002 -0.15600014 v -0.49399996 c 0.42900002 0 0.70199996 -0.039000034 0.79300004 -0.10400009 c 0.09099996 -0.06500006 0.13 -0.24700022 0.13 -0.546 v -3.4580002 c 0 -0.24700004 -0.039000034 -0.40300006 -0.13 -0.45500004 c -0.09100008 -0.052000046 -0.37700003 -0.065 -0.845 -0.065 v -0.507 Z "/>
        </symbol>
        <symbol id="gF42DC712C59DD38B59D5F0FBCB07D9A1" overflow="visible">
            <path d="M 0 0m 4.862 -0.143 l 1.9890003 0.143 v 0.49400002 c -0.4680004 0 -0.7410002 0.025999963 -0.84500027 0.10399997 c -0.10400009 0.07800001 -0.15600014 0.273 -0.15600014 0.5720001 v 7.852 l -1.9369998 -0.1430006 v -0.49399948 c 0.45499992 0 0.7410002 -0.03900051 0.8449998 -0.116999626 c 0.10400009 -0.07800007 0.14300013 -0.26000023 0.14300013 -0.5590005 v -2.639 c -0.4159999 0.48099995 -0.9359999 0.71500015 -1.56 0.71500015 c -0.806 0 -1.495 -0.28600025 -2.054 -0.8710003 c -0.559 -0.58500004 -0.845 -1.287 -0.845 -2.106 c 0 -0.793 0.26000002 -1.4820001 0.793 -2.0670002 c 0.533 -0.585 1.183 -0.884 1.976 -0.884 c 0.6630001 0 1.2220001 0.24700001 1.651 0.754 Z m -1.4689999 5.538 c 0.559 0 1.0139999 -0.24699974 1.3389997 -0.7409997 c 0.09100008 -0.14300013 0.13000011 -0.28600025 0.13000011 -0.4550004 v -2.626 c 0 -0.16900003 -0.039000034 -0.31200004 -0.13000011 -0.45500004 c -0.36399984 -0.58500004 -0.8579998 -0.87100005 -1.4689999 -0.87100005 c -0.533 0 -0.9619999 0.26000002 -1.3 0.793 c -0.23399997 0.3900001 -0.35100007 0.97500014 -0.35100007 1.7550001 c 0 1.4169998 0.48099995 2.6 1.7810001 2.6 Z "/>
        </symbol>
        <symbol id="g5B179227473B81470F9BB620345550D" overflow="visible">
            <path d="M 0 0m 4.0820003 5.369 c 0.58500004 0 0.8839998 -0.45499992 0.8839998 -1.3779998 v -2.9640002 c 0 -0.24700004 -0.039000034 -0.40300006 -0.13000011 -0.45500004 c -0.09100008 -0.052000046 -0.37699986 -0.07800001 -0.8579998 -0.07800001 v -0.49400002 l 1.4949999 0.039 l 1.4819999 -0.039 v 0.49400002 c -0.4159999 0 -0.68899965 0.013000011 -0.81899977 0.051999986 c -0.13000011 0.039000034 -0.18200016 0.13 -0.18200016 0.286 v 2.431 c 0 0.61100006 -0.013000011 1.04 -0.052000046 1.2870002 c -0.12999964 0.79299974 -0.7149997 1.1960001 -1.7420001 1.1960001 c -0.81899977 0 -1.4299998 -0.39000034 -1.8329997 -1.1700001 v 1.1700001 l -1.9110001 -0.14300013 v -0.49399996 c 0.468 0 0.75400007 -0.039000034 0.85800004 -0.1170001 c 0.10399997 -0.07800007 0.143 -0.24700022 0.143 -0.546 v -3.4190001 c 0 -0.24700004 -0.052000046 -0.40300006 -0.143 -0.45500004 c -0.09100008 -0.052000046 -0.37700003 -0.07800001 -0.85800004 -0.07800001 v -0.49400002 l 1.495 0.039 l 1.4820001 -0.039 v 0.49400002 c -0.48099995 0 -0.7540002 0.025999963 -0.845 0.07800001 c -0.09100008 0.051999986 -0.14300013 0.208 -0.14300013 0.45500004 v 2.3400002 c 0 1.053 0.6630001 2.0019999 1.6770003 2.0019999 Z "/>
        </symbol>
        <symbol id="g15DD9E5BD4234D005A755E176074F18E" overflow="visible">
            <path d="M 0 0m 5.395 3.263 c 0 1.4949999 -0.8709998 2.5610003 -2.327 2.5610003 c -0.78 0 -1.4300001 -0.29900026 -1.963 -0.9100003 c -0.49400002 -0.572 -0.741 -1.2609999 -0.741 -2.054 c 0 -0.819 0.273 -1.5080001 0.81899995 -2.1060002 c 0.5460001 -0.598 1.222 -0.897 2.0279999 -0.897 c 0.7410002 0 1.3130002 0.26 1.7030001 0.767 c 0.3250003 0.42899996 0.48099995 0.741 0.48099995 0.94900006 c 0 0.13 -0.07800007 0.19499993 -0.22099972 0.19499993 c -0.10400009 0 -0.16900015 -0.06499994 -0.20800018 -0.20799994 c -0.28599977 -0.85800004 -0.8449998 -1.2870001 -1.677 -1.2870001 c -0.58500004 0 -1.04 0.273 -1.391 0.832 c -0.24699998 0.403 -0.36399996 1.0139999 -0.37699997 1.846 h 3.5100002 c 0.28599977 0 0.36399984 0.026000023 0.36399984 0.31200004 Z m -1.1570001 1.2740002 c 0.14300013 -0.4289999 0.20800018 -0.845 0.20800018 -1.2220001 h -2.9120002 c 0.039000034 0.8579998 0.26 1.4429998 0.65 1.7420001 c 0.32500005 0.25999975 0.61100006 0.38999987 0.88400006 0.38999987 c 0.58500004 0 0.97500014 -0.2989998 1.1699998 -0.90999985 Z "/>
        </symbol>
        <symbol id="g15393BD0C0335AB79E97A31DB8422327" overflow="visible">
            <path d="M 0 0m 5.434 0.039 c 0.29900026 0.013 0.72800016 0 1.2740002 -0.039 v 0.49400002 c -0.6890001 0 -0.9489999 0.013000011 -1.2220001 0.37699997 l -1.69 2.184 c 0.559 0.6889999 0.9359999 1.1569998 1.144 1.404 c 0.36399984 0.4159999 0.8710003 0.6370001 1.5339999 0.6500001 v 0.49399996 c -0.36399984 -0.026000023 -0.7279997 -0.039000034 -1.092 -0.039000034 c -0.48099995 0 -0.90999985 0.013000011 -1.2869997 0.039000034 v -0.49399996 c 0.24699974 -0.026000023 0.37699986 -0.14300013 0.37699986 -0.3510003 c 0 -0.116999626 -0.06500006 -0.25999975 -0.18200016 -0.4159999 l -0.75399995 -0.9359999 l -0.9619999 1.2350001 c -0.06500006 0.0909996 -0.10400009 0.15599966 -0.10400009 0.1949997 c 0 0.16900015 0.15600014 0.26000023 0.45499992 0.27300024 v 0.49399996 l -1.443 -0.039000034 c -0.33799994 -0.013000011 -0.75399995 0 -1.261 0.039000034 v -0.49399996 c 0.468 0 0.767 -0.039000034 0.897 -0.10400009 c 0.13 -0.06500006 0.33800006 -0.28600025 0.62399995 -0.6630001 l 1.235 -1.612 c -0.63699985 -0.819 -1.027 -1.313 -1.17 -1.482 c -0.416 -0.507 -0.962 -0.754 -1.651 -0.754 v -0.49400002 c 0.481 0.039 0.845 0.052 1.118 0.039 l 1.261 -0.039 v 0.49400002 c -0.24699998 0.038999975 -0.36400008 0.15600002 -0.36400008 0.351 c 0 0.051999986 0.013000011 0.116999984 0.039000034 0.18200004 c 0.07800007 0.16899991 0.4289999 0.61099994 1.053 1.3519999 l 0.9359999 -1.2219999 c 0.14300013 -0.18200004 0.2210002 -0.31200004 0.26000023 -0.39000005 c 0 -0.16900003 -0.15600014 -0.26 -0.46799994 -0.273 v -0.49400002 Z "/>
        </symbol>
        <symbol id="g68877EDE43E93E02097B8DBBC6E90A19" overflow="visible">
            <path d="M 0 0m 4.316 1.638 v 0.78 h -0.4159999 v -0.75399995 c 0 -0.65 -0.23399997 -1.378 -0.806 -1.378 c -0.533 0 -0.793 0.44200003 -0.793 1.326 v 3.5230002 h 1.8070002 v 0.49399996 h -1.8070002 v 2.3660002 h -0.41600013 c -0.013000011 -0.42900038 -0.051999927 -0.80600023 -0.143 -1.144 c -0.22099996 -0.8580003 -0.7279999 -1.3000002 -1.495 -1.3390002 v -0.37699986 h 1.079 v -3.4970002 c 0 -0.767 0.23400009 -1.261 0.6890001 -1.508 c 0.35099983 -0.182 0.6759999 -0.273 1.0009999 -0.273 c 0.85800004 0 1.3 0.85800004 1.3 1.781 Z "/>
        </symbol>
        <symbol id="g8558A88DD3E43CE81CBE004BC6EA4DBD" overflow="visible">
            <path d="M 0 0m 1.99 6.56 c 0 -0.099999905 0.109999895 -0.1500001 0.31999993 -0.1500001 c 0.4000001 0 0.5999999 -0.03999996 0.5999999 -0.13000011 c 0 -0.029999733 -0.01999998 -0.099999905 -0.049999952 -0.23000002 l -1.3 -5.2299995 c -0.059999943 -0.22000003 -0.15999997 -0.35 -0.29999995 -0.4 c -0.07000005 -0.02000001 -0.25 -0.030000001 -0.56 -0.030000001 c -0.22 0 -0.32 -0.01999998 -0.32 -0.22999999 c 0 -0.11 0.060000002 -0.16 0.19 -0.16 l 1.3 0.03 l 1.4799999 -0.03 c 0.16000009 0 0.24000001 0.08 0.24000001 0.22999999 c 0 0.16999999 -0.109999895 0.16 -0.3699999 0.16 c -0.44000006 0 -0.69000006 0.02000001 -0.75 0.06999999 c -0.029999971 0.01000002 -0.0400002 0.050000012 -0.0400002 0.100000024 l 0.6400001 2.65 h 0.93000007 c 0.46000004 0 0.77999973 -0.02000022 0.77999973 -0.4000001 c 0 -0.13000011 -0.01999998 -0.28999996 -0.069999695 -0.48000002 c -0.010000229 -0.029999971 -0.01999998 -0.06999993 -0.03000021 -0.109999895 c 0 -0.11000013 0.05000019 -0.16000009 0.15999985 -0.16000009 c 0.05000019 0.00999999 0.12000036 0.07999992 0.19000006 0.23000002 l 0.53999996 2.15 c 0.01999998 0.07999992 0.03000021 0.13999987 0.03000021 0.17000008 c -0.03000021 0.089999676 -0.09000015 0.13999987 -0.15999985 0.13999987 c -0.0800004 0 -0.14000034 -0.07999992 -0.1800003 -0.23000002 c -0.099999905 -0.3800001 -0.23999977 -0.6200001 -0.4000001 -0.74 c -0.15999985 -0.120000124 -0.43999958 -0.18000007 -0.8399997 -0.18000007 h -0.85000014 l 0.6200001 2.46 c 0.07999992 0.33999968 0.07999992 0.3499999 0.5 0.3499999 h 1.2999997 c 0.97000027 0 1.4100003 -0.1500001 1.4100003 -1.04 c 0 -0.19999981 -0.010000229 -0.3800001 -0.03000021 -0.5300002 c -0.009999752 -0.10999966 -0.01999998 -0.1699996 -0.01999998 -0.17999983 c 0 -0.11000013 0.05000019 -0.15999985 0.1500001 -0.15999985 c 0.099999905 0 0.15999985 0.089999676 0.17999983 0.27999973 l 0.20000029 1.71 c 0.029999733 0.2800002 -0.03999996 0.30999994 -0.30999994 0.30999994 h -4.84 c -0.23000002 0 -0.3399999 -0.009999752 -0.3399999 -0.23999977 Z "/>
        </symbol>
    </defs>
</svg>
